<svg width="565" height="125" xmlns="http://www.w3.org/2000/svg"><g fill-rule="nonzero" fill="none"><path d="M46.555 122.376a13.93 13.93 0 0 0 12.615 0l35.16-18.319c4.563-2.348 7.381-7.045 7.381-12.145V49.236c0-5.1-2.818-9.729-7.381-12.078L59.17 18.84a13.53 13.53 0 0 0-12.615 0l-35.16 18.318c-4.563 2.349-7.382 6.979-7.382 12.078v42.676c0 5.1 2.819 9.797 7.381 12.145l35.16 18.319Zm9.662-5.1a7.746 7.746 0 0 1-6.978-.134L14.079 98.89l-.269-.135c-2.416-1.409-3.959-4.026-3.959-6.844V48.968c.134-2.818 1.745-5.368 4.227-6.643l35.16-18.318.27-.134a8.193 8.193 0 0 1 6.978.134l35.16 18.318.268.134c2.416 1.342 3.96 3.96 3.96 6.845V92.18c-.068 2.819-1.745 5.368-4.228 6.71l-35.16 18.252-.269.134Zm1.476-24.089c.671 0 1.275-.537 1.342-1.208l1.88-20.935h12.748a.872.872 0 0 0 .805-.537c.135-.268.067-.604-.134-.872L52.996 45.479 31.66 69.635c-.202.268-.269.604-.135.872.135.336.47.537.806.537h12.749l1.878 20.935c.068.671.671 1.208 1.342 1.208h9.394Zm76.832 3.288c2.885 0 5.636-.671 8.186-2.013 2.55-1.275 4.563-3.02 6.24-5.167l.067 5.905h7.851l-.067-46.769h-7.85v27.31c0 2.349-.605 4.496-1.678 6.442-1.208 1.878-2.751 3.489-4.63 4.63-1.946 1.073-4.093 1.677-6.442 1.677-2.348 0-4.496-.604-6.441-1.677-1.946-1.141-3.49-2.752-4.63-4.63-1.208-1.946-1.745-4.094-1.745-6.442v-27.31h-7.85v29.055c0 3.489.805 6.71 2.55 9.528 1.677 2.885 3.958 5.166 6.843 6.911 2.886 1.678 6.04 2.55 9.596 2.55Zm38.181 17.379V87.215c1.544 2.751 3.69 4.965 6.308 6.643 2.684 1.745 5.837 2.55 9.46 2.55 3.423 0 6.577-.604 9.596-1.879 2.953-1.275 5.57-3.087 7.85-5.368 2.215-2.214 3.96-4.831 5.235-7.85a24.28 24.28 0 0 0 1.946-9.596c0-3.422-.671-6.576-1.946-9.528-1.275-2.953-3.02-5.57-5.234-7.784-2.282-2.281-4.898-4.026-7.85-5.3a24.28 24.28 0 0 0-9.596-1.947c-3.624 0-6.777.873-9.461 2.55-2.617 1.745-4.764 3.96-6.308 6.71v-7.985h-7.85v65.423h7.85Zm15.702-25.096c-3.087 0-5.704-.805-7.985-2.281-2.282-1.543-4.026-3.623-5.234-6.173a20.135 20.135 0 0 1-1.879-8.589c0-3.154.671-5.972 1.879-8.522 1.208-2.617 2.952-4.63 5.234-6.173 2.281-1.476 4.965-2.214 7.985-2.214 3.086 0 5.905.738 8.387 2.214a17.172 17.172 0 0 1 6.04 6.173c1.543 2.55 2.28 5.435 2.28 8.522 0 3.22-.805 6.039-2.28 8.656-1.544 2.55-3.557 4.63-6.107 6.106-2.55 1.543-5.3 2.281-8.32 2.281ZM228.2 95.2V34.139h-7.85V95.2h7.85Zm31.404 1.208c3.221 0 6.24-.671 9.059-1.879a24.677 24.677 0 0 0 7.448-5.3 25.356 25.356 0 0 0 5.032-7.852c1.275-2.952 1.88-6.173 1.88-9.528 0-4.563-1.074-8.723-3.222-12.48-2.08-3.69-4.898-6.71-8.454-8.925-3.556-2.214-7.448-3.288-11.743-3.288-3.288 0-6.24.604-9.125 1.88-2.818 1.341-5.301 3.086-7.448 5.3-2.08 2.282-3.825 4.898-5.033 7.85-1.208 2.953-1.744 6.174-1.744 9.663 0 4.496 1.006 8.656 3.153 12.347 2.08 3.69 4.899 6.71 8.455 8.924 3.49 2.214 7.448 3.288 11.742 3.288Zm0-7.85c-2.818 0-5.435-.739-7.783-2.215-2.349-1.476-4.228-3.49-5.637-6.04-1.409-2.482-2.08-5.367-2.08-8.454 0-3.086.604-5.838 2.013-8.387 1.342-2.55 3.221-4.63 5.57-6.174 2.281-1.543 4.965-2.28 7.917-2.28 2.886 0 5.503.737 7.851 2.28a17.457 17.457 0 0 1 5.57 6.107c1.408 2.55 2.08 5.368 2.08 8.454 0 3.02-.672 5.77-2.014 8.32-1.342 2.483-3.22 4.563-5.569 6.107-2.348 1.543-5.032 2.281-7.918 2.281Zm52.81 7.85c3.489 0 6.576-.805 9.125-2.483 2.483-1.61 4.362-3.69 5.838-6.173l.269-.47.335 7.918h7.85V48.431h-7.85l.268 7.985c-1.744-2.684-3.958-4.965-6.777-6.71-2.75-1.677-5.972-2.55-9.662-2.55-3.355 0-6.509.604-9.461 1.88-2.885 1.274-5.502 3.019-7.717 5.233-2.214 2.214-3.959 4.831-5.233 7.784-1.208 2.952-1.812 6.106-1.812 9.46 0 3.423.604 6.644 1.879 9.663 1.275 3.02 3.086 5.636 5.368 7.918 2.281 2.281 4.898 4.093 7.917 5.368 3.02 1.275 6.174 1.946 9.663 1.946Zm-.201-7.582c-2.953 0-5.704-.806-8.254-2.282-2.55-1.543-4.563-3.556-6.039-6.106-1.543-2.617-2.348-5.435-2.348-8.589 0-3.154.738-6.039 2.214-8.589 1.543-2.616 3.49-4.63 6.039-6.173 2.55-1.543 5.3-2.281 8.388-2.281 3.086 0 5.77.738 7.984 2.281 2.282 1.476 4.026 3.556 5.301 6.106 1.208 2.55 1.812 5.435 1.812 8.656 0 3.087-.604 5.972-1.812 8.522-1.207 2.617-2.952 4.63-5.233 6.173-2.282 1.476-4.966 2.282-8.052 2.282Zm53.883 7.582c3.556 0 6.71-.805 9.394-2.483 2.684-1.745 4.83-3.959 6.374-6.643V95.2h7.85V34.139h-7.85v22.21c-1.543-2.751-3.69-4.965-6.374-6.643-2.684-1.677-5.838-2.55-9.394-2.55-3.423 0-6.643.739-9.596 1.946-2.952 1.275-5.569 3.087-7.85 5.301-2.282 2.282-4.026 4.898-5.301 7.918-1.275 2.952-1.88 6.106-1.88 9.528 0 3.355.605 6.509 1.88 9.528 1.275 2.953 3.02 5.57 5.3 7.784 2.282 2.281 4.899 4.026 7.851 5.368 2.953 1.275 6.173 1.879 9.596 1.879Zm0-7.582c-2.953 0-5.704-.806-8.254-2.282a18.129 18.129 0 0 1-6.039-6.106c-1.543-2.617-2.348-5.435-2.348-8.589 0-3.154.805-6.039 2.281-8.589 1.543-2.616 3.49-4.63 5.972-6.106 2.55-1.61 5.301-2.348 8.388-2.348 3.153 0 5.77.738 8.052 2.281 2.214 1.476 3.958 3.556 5.233 6.106 1.275 2.617 1.88 5.502 1.88 8.656 0 3.154-.605 5.972-1.88 8.589-1.207 2.55-2.952 4.563-5.233 6.106-2.282 1.476-4.899 2.282-8.052 2.282Zm54.956 7.582c4.63 0 8.857-1.342 12.615-3.96 3.623-2.549 6.375-5.703 8.253-9.729l.202-.47-7.985-1.878c-1.41 2.55-3.288 4.496-5.502 6.039a14.229 14.229 0 0 1-7.583 2.147c-2.684 0-5.032-.67-7.18-1.879-2.147-1.275-3.891-2.885-5.233-4.965a16.642 16.642 0 0 1-2.55-6.576l-.067-.47h38.113c.268-3.757-.135-7.38-1.141-10.736-1.074-3.287-2.617-6.173-4.697-8.723-2.147-2.55-4.697-4.562-7.582-5.971-2.953-1.41-6.174-2.08-9.663-2.08-3.288 0-6.307.603-9.125 1.878-2.819 1.275-5.301 3.02-7.448 5.301a25.356 25.356 0 0 0-5.033 7.85c-1.208 3.02-1.812 6.174-1.812 9.663 0 4.496 1.074 8.589 3.154 12.28 2.08 3.757 4.965 6.777 8.455 8.924 3.556 2.214 7.448 3.355 11.81 3.355Zm15.165-27.914H405.82c.335-2.684 1.207-5.1 2.616-7.247 1.41-2.147 3.221-3.891 5.368-5.166 2.148-1.342 4.563-1.946 7.247-1.946 2.617 0 4.966.67 7.18 2.013 2.214 1.275 4.026 3.02 5.435 5.166 1.476 2.148 2.281 4.563 2.55 7.18ZM459.972 95.2V67.89c0-2.348.604-4.495 1.745-6.441 1.14-1.946 2.684-3.49 4.63-4.697 1.945-1.141 4.093-1.678 6.441-1.678 1.208 0 2.483.202 3.758.604l3.22-7.85c-1.744-.47-3.489-.739-5.3-.739-2.953 0-5.704.671-8.187 1.946-2.55 1.342-4.63 3.02-6.307 5.234v-5.838h-7.85V95.2h7.85Z" stroke="#3E495D" fill="#3E495D"/><path d="M119.732 35v-9.504c0-2.064.534-3.654 1.602-4.77 1.068-1.116 2.538-1.674 4.41-1.674.336 0 .6.012.792.036V15.74c-1.68 0-3.108.288-4.284.864-1.176.576-2.064 1.416-2.664 2.52V15.92h-3.312V35h3.456Zm19.8.216c1.584 0 3.018-.264 4.302-.792 1.284-.528 2.346-1.296 3.186-2.304l-1.872-2.232c-1.392 1.536-3.228 2.304-5.508 2.304-1.608 0-2.982-.36-4.122-1.08-1.14-.72-1.95-1.74-2.43-3.06l15.156-2.952c-.024-1.848-.456-3.48-1.296-4.896a8.83 8.83 0 0 0-3.384-3.294c-1.416-.78-2.988-1.17-4.716-1.17-1.824 0-3.462.414-4.914 1.242a8.897 8.897 0 0 0-3.42 3.474c-.828 1.488-1.242 3.156-1.242 5.004 0 1.872.426 3.552 1.278 5.04.852 1.488 2.058 2.646 3.618 3.474 1.56.828 3.348 1.242 5.364 1.242Zm-6.912-9.576v-.36c0-1.32.264-2.478.792-3.474a5.736 5.736 0 0 1 2.214-2.322c.948-.552 2.022-.828 3.222-.828 1.512 0 2.808.432 3.888 1.296 1.08.864 1.776 1.992 2.088 3.384L132.62 25.64Zm28.332 9.576c1.416 0 2.712-.276 3.888-.828a7.484 7.484 0 0 0 2.916-2.412V35h3.312V15.92h-3.456v2.88a7.338 7.338 0 0 0-2.88-2.286c-1.152-.516-2.412-.774-3.78-.774-1.848 0-3.504.408-4.968 1.224a8.804 8.804 0 0 0-3.438 3.42c-.828 1.464-1.242 3.156-1.242 5.076 0 1.92.414 3.618 1.242 5.094a8.77 8.77 0 0 0 3.438 3.438c1.464.816 3.12 1.224 4.968 1.224Zm.288-3.024c-1.224 0-2.322-.282-3.294-.846a6.096 6.096 0 0 1-2.304-2.376c-.564-1.02-.846-2.19-.846-3.51 0-1.32.282-2.49.846-3.51.564-1.02 1.332-1.806 2.304-2.358.972-.552 2.07-.828 3.294-.828 1.2 0 2.292.276 3.276.828a5.815 5.815 0 0 1 2.304 2.358c.552 1.02.828 2.19.828 3.51 0 1.32-.276 2.49-.828 3.51a5.936 5.936 0 0 1-2.304 2.376c-.984.564-2.076.846-3.276.846Zm24.696 3.024c1.728 0 3.27-.354 4.626-1.062a7.549 7.549 0 0 0 3.15-3.042l-2.628-1.656c-.6.912-1.344 1.596-2.232 2.052-.888.456-1.872.684-2.952.684-1.248 0-2.37-.276-3.366-.828a5.9 5.9 0 0 1-2.34-2.358c-.564-1.02-.846-2.202-.846-3.546 0-1.32.282-2.49.846-3.51a5.9 5.9 0 0 1 2.34-2.358c.996-.552 2.118-.828 3.366-.828 1.08 0 2.064.228 2.952.684.888.456 1.632 1.14 2.232 2.052l2.628-1.692a7.436 7.436 0 0 0-3.15-3.024c-1.356-.696-2.898-1.044-4.626-1.044-1.944 0-3.678.414-5.202 1.242a9.105 9.105 0 0 0-3.582 3.456c-.864 1.476-1.296 3.15-1.296 5.022 0 1.872.432 3.546 1.296 5.022a9.232 9.232 0 0 0 3.582 3.474c1.524.84 3.258 1.26 5.202 1.26Zm18.108 0a7.82 7.82 0 0 0 2.304-.342c.744-.228 1.368-.558 1.872-.99l-1.08-2.484c-.744.6-1.644.9-2.7.9-.96 0-1.698-.276-2.214-.828-.516-.552-.774-1.344-.774-2.376V18.764h5.472V15.92h-5.472v-4.176h-3.456V29.24c0 1.92.528 3.396 1.584 4.428s2.544 1.548 4.464 1.548Z" fill="#88909E"/></g></svg>
